<mxfile host="app.diagrams.net" modified="2023-11-15T12:45:43.311Z" agent="Mozilla/5.0 (Windows NT 10.0; Win64; x64) AppleWebKit/537.36 (KHTML, like Gecko) Chrome/119.0.0.0 Safari/537.36" etag="DOafYWVWFBsS0H0uaHHS" version="22.1.1" type="github">
  <diagram id="C5RBs43oDa-KdzZeNtuy" name="Page-1">
    <mxGraphModel dx="1120" dy="1647" grid="1" gridSize="10" guides="1" tooltips="1" connect="1" arrows="1" fold="1" page="1" pageScale="1" pageWidth="827" pageHeight="1169" math="0" shadow="0">
      <root>
        <mxCell id="WIyWlLk6GJQsqaUBKTNV-0" />
        <mxCell id="WIyWlLk6GJQsqaUBKTNV-1" parent="WIyWlLk6GJQsqaUBKTNV-0" />
        <mxCell id="jN8S7fCRklli_ahP0uXs-13" value="Outputs" style="swimlane;whiteSpace=wrap;html=1;fillColor=#f8cecc;strokeColor=#b85450;gradientColor=#ea6b66;" parent="WIyWlLk6GJQsqaUBKTNV-1" vertex="1">
          <mxGeometry x="70" y="580" width="400" height="40" as="geometry">
            <mxRectangle x="80" y="360" width="90" height="30" as="alternateBounds" />
          </mxGeometry>
        </mxCell>
        <mxCell id="jN8S7fCRklli_ahP0uXs-15" style="edgeStyle=orthogonalEdgeStyle;rounded=0;orthogonalLoop=1;jettySize=auto;html=1;exitX=0.5;exitY=1;exitDx=0;exitDy=0;fillColor=#f8cecc;strokeColor=#b85450;gradientColor=#ea6b66;" parent="jN8S7fCRklli_ahP0uXs-13" edge="1">
          <mxGeometry relative="1" as="geometry">
            <mxPoint x="150" y="40" as="sourcePoint" />
            <mxPoint x="150" y="40" as="targetPoint" />
          </mxGeometry>
        </mxCell>
        <mxCell id="jN8S7fCRklli_ahP0uXs-16" value="52 ml Acetonedicarboxylic acid anhydride" style="rounded=0;whiteSpace=wrap;html=1;fillColor=#f8cecc;strokeColor=#b85450;gradientColor=#ea6b66;" parent="jN8S7fCRklli_ahP0uXs-13" vertex="1">
          <mxGeometry y="20" width="400" height="20" as="geometry" />
        </mxCell>
        <mxCell id="jN8S7fCRklli_ahP0uXs-22" value="Acetonedicarboxylic acid anhydride Step Chain" style="shape=document;whiteSpace=wrap;html=1;boundedLbl=1;fillColor=#f5f5f5;gradientColor=#b3b3b3;strokeColor=#666666;" parent="WIyWlLk6GJQsqaUBKTNV-1" vertex="1">
          <mxGeometry x="70" y="620" width="400" height="80" as="geometry" />
        </mxCell>
        <mxCell id="jN8S7fCRklli_ahP0uXs-26" value="Inputs" style="swimlane;whiteSpace=wrap;html=1;fillColor=#d5e8d4;strokeColor=#82b366;gradientColor=#97d077;" parent="WIyWlLk6GJQsqaUBKTNV-1" vertex="1">
          <mxGeometry x="80" y="230" width="400" height="80" as="geometry">
            <mxRectangle x="80" y="230" width="80" height="30" as="alternateBounds" />
          </mxGeometry>
        </mxCell>
        <mxCell id="jN8S7fCRklli_ahP0uXs-27" value="Previous /\" style="rounded=0;whiteSpace=wrap;html=1;fillColor=#d5e8d4;strokeColor=#82b366;gradientColor=#97d077;" parent="jN8S7fCRklli_ahP0uXs-26" vertex="1">
          <mxGeometry y="20" width="400" height="20" as="geometry" />
        </mxCell>
        <mxCell id="jN8S7fCRklli_ahP0uXs-28" style="edgeStyle=orthogonalEdgeStyle;rounded=0;orthogonalLoop=1;jettySize=auto;html=1;exitX=0.5;exitY=1;exitDx=0;exitDy=0;fillColor=#d5e8d4;strokeColor=#82b366;gradientColor=#97d077;" parent="jN8S7fCRklli_ahP0uXs-26" source="jN8S7fCRklli_ahP0uXs-27" target="jN8S7fCRklli_ahP0uXs-27" edge="1">
          <mxGeometry relative="1" as="geometry" />
        </mxCell>
        <mxCell id="jN8S7fCRklli_ahP0uXs-29" value="100 ml of glacial acetic acid" style="rounded=0;whiteSpace=wrap;html=1;fillColor=#d5e8d4;strokeColor=#82b366;gradientColor=#97d077;" parent="jN8S7fCRklli_ahP0uXs-26" vertex="1">
          <mxGeometry y="40" width="400" height="20" as="geometry" />
        </mxCell>
        <mxCell id="jN8S7fCRklli_ahP0uXs-34" value="100 ml of benzene" style="rounded=0;whiteSpace=wrap;html=1;fillColor=#d5e8d4;strokeColor=#82b366;gradientColor=#97d077;" parent="jN8S7fCRklli_ahP0uXs-26" vertex="1">
          <mxGeometry y="60" width="400" height="20" as="geometry" />
        </mxCell>
        <mxCell id="jN8S7fCRklli_ahP0uXs-35" value="Process" style="swimlane;whiteSpace=wrap;html=1;fillColor=#dae8fc;strokeColor=#6c8ebf;gradientColor=#7ea6e0;" parent="WIyWlLk6GJQsqaUBKTNV-1" vertex="1">
          <mxGeometry x="80" y="310" width="400" height="40" as="geometry">
            <mxRectangle x="80" y="190" width="90" height="30" as="alternateBounds" />
          </mxGeometry>
        </mxCell>
        <mxCell id="jN8S7fCRklli_ahP0uXs-36" value="Chemical Washer" style="rounded=0;whiteSpace=wrap;html=1;fillColor=#dae8fc;strokeColor=#6c8ebf;gradientColor=#7ea6e0;" parent="jN8S7fCRklli_ahP0uXs-35" vertex="1">
          <mxGeometry y="20" width="400" height="20" as="geometry" />
        </mxCell>
        <mxCell id="jN8S7fCRklli_ahP0uXs-39" value="Outputs" style="swimlane;whiteSpace=wrap;html=1;fillColor=#f8cecc;strokeColor=#b85450;gradientColor=#ea6b66;startSize=23;" parent="WIyWlLk6GJQsqaUBKTNV-1" vertex="1">
          <mxGeometry x="80" y="390" width="400" height="40" as="geometry">
            <mxRectangle x="80" y="150" width="90" height="30" as="alternateBounds" />
          </mxGeometry>
        </mxCell>
        <mxCell id="jN8S7fCRklli_ahP0uXs-40" style="edgeStyle=orthogonalEdgeStyle;rounded=0;orthogonalLoop=1;jettySize=auto;html=1;exitX=0.5;exitY=1;exitDx=0;exitDy=0;fillColor=#f8cecc;strokeColor=#b85450;gradientColor=#ea6b66;" parent="jN8S7fCRklli_ahP0uXs-39" edge="1">
          <mxGeometry relative="1" as="geometry">
            <mxPoint x="150" y="40" as="sourcePoint" />
            <mxPoint x="150" y="40" as="targetPoint" />
          </mxGeometry>
        </mxCell>
        <mxCell id="jN8S7fCRklli_ahP0uXs-41" value="14.8 g of washed white powder (84%)" style="rounded=0;whiteSpace=wrap;html=1;fillColor=#f8cecc;strokeColor=#b85450;gradientColor=#ea6b66;" parent="jN8S7fCRklli_ahP0uXs-39" vertex="1">
          <mxGeometry y="20" width="400" height="20" as="geometry" />
        </mxCell>
        <mxCell id="jN8S7fCRklli_ahP0uXs-42" value="Inputs" style="swimlane;whiteSpace=wrap;html=1;fillColor=#d5e8d4;strokeColor=#82b366;gradientColor=#97d077;" parent="WIyWlLk6GJQsqaUBKTNV-1" vertex="1">
          <mxGeometry x="70" y="460" width="400" height="40" as="geometry">
            <mxRectangle x="80" y="230" width="80" height="30" as="alternateBounds" />
          </mxGeometry>
        </mxCell>
        <mxCell id="jN8S7fCRklli_ahP0uXs-43" value="Previous /\" style="rounded=0;whiteSpace=wrap;html=1;fillColor=#d5e8d4;strokeColor=#82b366;gradientColor=#97d077;" parent="jN8S7fCRklli_ahP0uXs-42" vertex="1">
          <mxGeometry y="20" width="400" height="20" as="geometry" />
        </mxCell>
        <mxCell id="jN8S7fCRklli_ahP0uXs-44" style="edgeStyle=orthogonalEdgeStyle;rounded=0;orthogonalLoop=1;jettySize=auto;html=1;exitX=0.5;exitY=1;exitDx=0;exitDy=0;fillColor=#d5e8d4;strokeColor=#82b366;gradientColor=#97d077;" parent="jN8S7fCRklli_ahP0uXs-42" source="jN8S7fCRklli_ahP0uXs-43" target="jN8S7fCRklli_ahP0uXs-43" edge="1">
          <mxGeometry relative="1" as="geometry" />
        </mxCell>
        <mxCell id="jN8S7fCRklli_ahP0uXs-47" value="Process" style="swimlane;whiteSpace=wrap;html=1;fillColor=#dae8fc;strokeColor=#6c8ebf;gradientColor=#7ea6e0;" parent="WIyWlLk6GJQsqaUBKTNV-1" vertex="1">
          <mxGeometry x="70" y="500" width="400" height="40" as="geometry">
            <mxRectangle x="80" y="190" width="90" height="30" as="alternateBounds" />
          </mxGeometry>
        </mxCell>
        <mxCell id="jN8S7fCRklli_ahP0uXs-48" value="Drying" style="rounded=0;whiteSpace=wrap;html=1;fillColor=#dae8fc;strokeColor=#6c8ebf;gradientColor=#7ea6e0;" parent="jN8S7fCRklli_ahP0uXs-47" vertex="1">
          <mxGeometry y="20" width="400" height="20" as="geometry" />
        </mxCell>
        <mxCell id="jN8S7fCRklli_ahP0uXs-62" value="Succindialdehyde&amp;nbsp;Step Chain" style="shape=document;whiteSpace=wrap;html=1;boundedLbl=1;fillColor=#f5f5f5;gradientColor=#b3b3b3;strokeColor=#666666;" parent="WIyWlLk6GJQsqaUBKTNV-1" vertex="1">
          <mxGeometry x="580" y="615" width="400" height="80" as="geometry" />
        </mxCell>
        <mxCell id="jN8S7fCRklli_ahP0uXs-83" value="Outputs" style="swimlane;whiteSpace=wrap;html=1;fillColor=#f8cecc;strokeColor=#b85450;gradientColor=#ea6b66;" parent="WIyWlLk6GJQsqaUBKTNV-1" vertex="1">
          <mxGeometry x="580" y="575" width="400" height="40" as="geometry">
            <mxRectangle x="80" y="360" width="90" height="30" as="alternateBounds" />
          </mxGeometry>
        </mxCell>
        <mxCell id="jN8S7fCRklli_ahP0uXs-84" style="edgeStyle=orthogonalEdgeStyle;rounded=0;orthogonalLoop=1;jettySize=auto;html=1;exitX=0.5;exitY=1;exitDx=0;exitDy=0;fillColor=#f8cecc;strokeColor=#b85450;gradientColor=#ea6b66;" parent="jN8S7fCRklli_ahP0uXs-83" edge="1">
          <mxGeometry relative="1" as="geometry">
            <mxPoint x="150" y="40" as="sourcePoint" />
            <mxPoint x="150" y="40" as="targetPoint" />
          </mxGeometry>
        </mxCell>
        <mxCell id="jN8S7fCRklli_ahP0uXs-85" value="400ml Succindialdehyde Solution" style="rounded=0;whiteSpace=wrap;html=1;fillColor=#f8cecc;strokeColor=#b85450;gradientColor=#ea6b66;" parent="jN8S7fCRklli_ahP0uXs-83" vertex="1">
          <mxGeometry y="20" width="400" height="20" as="geometry" />
        </mxCell>
        <mxCell id="jN8S7fCRklli_ahP0uXs-86" value="Inputs" style="swimlane;whiteSpace=wrap;html=1;fillColor=#d5e8d4;strokeColor=#82b366;gradientColor=#97d077;" parent="WIyWlLk6GJQsqaUBKTNV-1" vertex="1">
          <mxGeometry x="580" y="435" width="400" height="60" as="geometry">
            <mxRectangle x="80" y="230" width="80" height="30" as="alternateBounds" />
          </mxGeometry>
        </mxCell>
        <mxCell id="jN8S7fCRklli_ahP0uXs-87" value="400 ml of 0.2 N sulfuric acid" style="rounded=0;whiteSpace=wrap;html=1;fillColor=#d5e8d4;strokeColor=#82b366;gradientColor=#97d077;" parent="jN8S7fCRklli_ahP0uXs-86" vertex="1">
          <mxGeometry y="20" width="400" height="20" as="geometry" />
        </mxCell>
        <mxCell id="jN8S7fCRklli_ahP0uXs-88" style="edgeStyle=orthogonalEdgeStyle;rounded=0;orthogonalLoop=1;jettySize=auto;html=1;exitX=0.5;exitY=1;exitDx=0;exitDy=0;fillColor=#d5e8d4;strokeColor=#82b366;gradientColor=#97d077;" parent="jN8S7fCRklli_ahP0uXs-86" source="jN8S7fCRklli_ahP0uXs-87" target="jN8S7fCRklli_ahP0uXs-87" edge="1">
          <mxGeometry relative="1" as="geometry" />
        </mxCell>
        <mxCell id="jN8S7fCRklli_ahP0uXs-94" value="44.2 g (0.334 mol) of 2,5-dimethoxytetrahydrofuran (Aldrich)" style="rounded=0;whiteSpace=wrap;html=1;fillColor=#d5e8d4;strokeColor=#82b366;gradientColor=#97d077;" parent="jN8S7fCRklli_ahP0uXs-86" vertex="1">
          <mxGeometry y="40" width="400" height="20" as="geometry" />
        </mxCell>
        <mxCell id="jN8S7fCRklli_ahP0uXs-89" value="Process" style="swimlane;whiteSpace=wrap;html=1;fillColor=#dae8fc;strokeColor=#6c8ebf;gradientColor=#7ea6e0;" parent="WIyWlLk6GJQsqaUBKTNV-1" vertex="1">
          <mxGeometry x="580" y="495" width="400" height="40" as="geometry">
            <mxRectangle x="80" y="190" width="90" height="30" as="alternateBounds" />
          </mxGeometry>
        </mxCell>
        <mxCell id="jN8S7fCRklli_ahP0uXs-90" value="Stirring - 15 seconds" style="rounded=0;whiteSpace=wrap;html=1;fillColor=#dae8fc;strokeColor=#6c8ebf;gradientColor=#7ea6e0;" parent="jN8S7fCRklli_ahP0uXs-89" vertex="1">
          <mxGeometry y="20" width="400" height="20" as="geometry" />
        </mxCell>
        <mxCell id="jN8S7fCRklli_ahP0uXs-97" value="Recipe Configuration" style="swimlane;whiteSpace=wrap;html=1;fillColor=#fff2cc;strokeColor=#d6b656;gradientColor=#ffd966;" parent="WIyWlLk6GJQsqaUBKTNV-1" vertex="1">
          <mxGeometry x="90" y="120" width="400" height="40" as="geometry">
            <mxRectangle x="80" y="190" width="90" height="30" as="alternateBounds" />
          </mxGeometry>
        </mxCell>
        <mxCell id="jN8S7fCRklli_ahP0uXs-98" value="20 Seconds, 40EU LV" style="rounded=0;whiteSpace=wrap;html=1;fillColor=#fff2cc;strokeColor=#d6b656;gradientColor=#ffd966;" parent="jN8S7fCRklli_ahP0uXs-97" vertex="1">
          <mxGeometry y="20" width="400" height="20" as="geometry" />
        </mxCell>
        <mxCell id="jN8S7fCRklli_ahP0uXs-18" value="Process" style="swimlane;whiteSpace=wrap;html=1;fillColor=#dae8fc;strokeColor=#6c8ebf;gradientColor=#7ea6e0;" parent="WIyWlLk6GJQsqaUBKTNV-1" vertex="1">
          <mxGeometry x="90" y="80" width="400" height="40" as="geometry">
            <mxRectangle x="80" y="190" width="90" height="30" as="alternateBounds" />
          </mxGeometry>
        </mxCell>
        <mxCell id="jN8S7fCRklli_ahP0uXs-20" value="Chemical Mixer, Suction filtration" style="rounded=0;whiteSpace=wrap;html=1;fillColor=#dae8fc;strokeColor=#6c8ebf;gradientColor=#7ea6e0;" parent="jN8S7fCRklli_ahP0uXs-18" vertex="1">
          <mxGeometry y="20" width="400" height="20" as="geometry" />
        </mxCell>
        <mxCell id="jN8S7fCRklli_ahP0uXs-3" value="Inputs" style="swimlane;whiteSpace=wrap;html=1;fillColor=#d5e8d4;strokeColor=#82b366;gradientColor=#97d077;" parent="WIyWlLk6GJQsqaUBKTNV-1" vertex="1">
          <mxGeometry x="90" width="400" height="80" as="geometry">
            <mxRectangle x="80" y="70" width="80" height="30" as="alternateBounds" />
          </mxGeometry>
        </mxCell>
        <mxCell id="jN8S7fCRklli_ahP0uXs-0" value="30 ml glacial acetic acid" style="rounded=0;whiteSpace=wrap;html=1;fillColor=#d5e8d4;strokeColor=#82b366;gradientColor=#97d077;" parent="jN8S7fCRklli_ahP0uXs-3" vertex="1">
          <mxGeometry y="20" width="400" height="20" as="geometry" />
        </mxCell>
        <mxCell id="jN8S7fCRklli_ahP0uXs-1" style="edgeStyle=orthogonalEdgeStyle;rounded=0;orthogonalLoop=1;jettySize=auto;html=1;exitX=0.5;exitY=1;exitDx=0;exitDy=0;fillColor=#d5e8d4;strokeColor=#82b366;gradientColor=#97d077;" parent="jN8S7fCRklli_ahP0uXs-3" source="jN8S7fCRklli_ahP0uXs-0" target="jN8S7fCRklli_ahP0uXs-0" edge="1">
          <mxGeometry relative="1" as="geometry" />
        </mxCell>
        <mxCell id="jN8S7fCRklli_ahP0uXs-2" value="22 ml of acetic anhydride" style="rounded=0;whiteSpace=wrap;html=1;fillColor=#d5e8d4;strokeColor=#82b366;gradientColor=#97d077;" parent="jN8S7fCRklli_ahP0uXs-3" vertex="1">
          <mxGeometry y="40" width="400" height="20" as="geometry" />
        </mxCell>
        <mxCell id="jN8S7fCRklli_ahP0uXs-12" value="20g (0.684 mol) of 1,3-acetonedicarboxylic acid&amp;nbsp;" style="rounded=0;whiteSpace=wrap;html=1;fillColor=#d5e8d4;strokeColor=#82b366;gradientColor=#97d077;" parent="jN8S7fCRklli_ahP0uXs-3" vertex="1">
          <mxGeometry y="60" width="400" height="20" as="geometry" />
        </mxCell>
        <mxCell id="jN8S7fCRklli_ahP0uXs-23" value="Outputs" style="swimlane;whiteSpace=wrap;html=1;fillColor=#f8cecc;strokeColor=#b85450;gradientColor=#ea6b66;" parent="WIyWlLk6GJQsqaUBKTNV-1" vertex="1">
          <mxGeometry x="90" y="160" width="400" height="40" as="geometry">
            <mxRectangle x="80" y="150" width="90" height="30" as="alternateBounds" />
          </mxGeometry>
        </mxCell>
        <mxCell id="jN8S7fCRklli_ahP0uXs-24" style="edgeStyle=orthogonalEdgeStyle;rounded=0;orthogonalLoop=1;jettySize=auto;html=1;exitX=0.5;exitY=1;exitDx=0;exitDy=0;fillColor=#f8cecc;strokeColor=#b85450;gradientColor=#ea6b66;" parent="jN8S7fCRklli_ahP0uXs-23" edge="1">
          <mxGeometry relative="1" as="geometry">
            <mxPoint x="150" y="40" as="sourcePoint" />
            <mxPoint x="150" y="40" as="targetPoint" />
          </mxGeometry>
        </mxCell>
        <mxCell id="jN8S7fCRklli_ahP0uXs-25" value="14.8 g of unfiltered white powder (84%)" style="rounded=0;whiteSpace=wrap;html=1;fillColor=#f8cecc;strokeColor=#b85450;gradientColor=#ea6b66;" parent="jN8S7fCRklli_ahP0uXs-23" vertex="1">
          <mxGeometry y="20" width="400" height="20" as="geometry" />
        </mxCell>
        <mxCell id="jN8S7fCRklli_ahP0uXs-99" value="Recipe Configuration" style="swimlane;whiteSpace=wrap;html=1;fillColor=#fff2cc;strokeColor=#d6b656;gradientColor=#ffd966;startSize=23;" parent="WIyWlLk6GJQsqaUBKTNV-1" vertex="1">
          <mxGeometry x="80" y="350" width="400" height="40" as="geometry">
            <mxRectangle x="80" y="190" width="90" height="30" as="alternateBounds" />
          </mxGeometry>
        </mxCell>
        <mxCell id="jN8S7fCRklli_ahP0uXs-100" value="20 Seconds, 60EU LV" style="rounded=0;whiteSpace=wrap;html=1;fillColor=#fff2cc;strokeColor=#d6b656;gradientColor=#ffd966;" parent="jN8S7fCRklli_ahP0uXs-99" vertex="1">
          <mxGeometry y="20" width="400" height="20" as="geometry" />
        </mxCell>
        <mxCell id="jN8S7fCRklli_ahP0uXs-101" value="Chain Link" style="shape=parallelogram;perimeter=parallelogramPerimeter;whiteSpace=wrap;html=1;fixedSize=1;fillColor=#f5f5f5;gradientColor=#b3b3b3;strokeColor=#666666;size=10;" parent="WIyWlLk6GJQsqaUBKTNV-1" vertex="1">
          <mxGeometry x="80" y="200" width="410" height="30" as="geometry" />
        </mxCell>
        <mxCell id="jN8S7fCRklli_ahP0uXs-102" value="Chain Link" style="shape=parallelogram;perimeter=parallelogramPerimeter;whiteSpace=wrap;html=1;fixedSize=1;fillColor=#f5f5f5;gradientColor=#b3b3b3;strokeColor=#666666;size=10;" parent="WIyWlLk6GJQsqaUBKTNV-1" vertex="1">
          <mxGeometry x="70" y="430" width="410" height="30" as="geometry" />
        </mxCell>
        <mxCell id="jN8S7fCRklli_ahP0uXs-103" value="Recipe Configuration" style="swimlane;whiteSpace=wrap;html=1;fillColor=#fff2cc;strokeColor=#d6b656;gradientColor=#ffd966;" parent="WIyWlLk6GJQsqaUBKTNV-1" vertex="1">
          <mxGeometry x="70" y="540" width="400" height="40" as="geometry">
            <mxRectangle x="80" y="190" width="90" height="30" as="alternateBounds" />
          </mxGeometry>
        </mxCell>
        <mxCell id="jN8S7fCRklli_ahP0uXs-104" value="20 Seconds, 40EU LV" style="rounded=0;whiteSpace=wrap;html=1;fillColor=#fff2cc;strokeColor=#d6b656;gradientColor=#ffd966;" parent="jN8S7fCRklli_ahP0uXs-103" vertex="1">
          <mxGeometry y="20" width="400" height="20" as="geometry" />
        </mxCell>
        <mxCell id="jN8S7fCRklli_ahP0uXs-105" value="Recipe Configuration" style="swimlane;whiteSpace=wrap;html=1;fillColor=#fff2cc;strokeColor=#d6b656;gradientColor=#ffd966;" parent="WIyWlLk6GJQsqaUBKTNV-1" vertex="1">
          <mxGeometry x="580" y="535" width="400" height="40" as="geometry">
            <mxRectangle x="80" y="190" width="90" height="30" as="alternateBounds" />
          </mxGeometry>
        </mxCell>
        <mxCell id="jN8S7fCRklli_ahP0uXs-106" value="20 Seconds, 40EU LV" style="rounded=0;whiteSpace=wrap;html=1;fillColor=#fff2cc;strokeColor=#d6b656;gradientColor=#ffd966;" parent="jN8S7fCRklli_ahP0uXs-105" vertex="1">
          <mxGeometry y="20" width="400" height="20" as="geometry" />
        </mxCell>
        <mxCell id="jN8S7fCRklli_ahP0uXs-108" value="Acetonedicarboxylic acid monomethyl ester Step Chain" style="shape=document;whiteSpace=wrap;html=1;boundedLbl=1;fillColor=#f5f5f5;gradientColor=#b3b3b3;strokeColor=#666666;" parent="WIyWlLk6GJQsqaUBKTNV-1" vertex="1">
          <mxGeometry x="1020" y="615" width="400" height="80" as="geometry" />
        </mxCell>
        <mxCell id="jN8S7fCRklli_ahP0uXs-109" value="Outputs" style="swimlane;whiteSpace=wrap;html=1;fillColor=#f8cecc;strokeColor=#b85450;gradientColor=#ea6b66;" parent="WIyWlLk6GJQsqaUBKTNV-1" vertex="1">
          <mxGeometry x="1020" y="575" width="400" height="40" as="geometry">
            <mxRectangle x="80" y="360" width="90" height="30" as="alternateBounds" />
          </mxGeometry>
        </mxCell>
        <mxCell id="jN8S7fCRklli_ahP0uXs-110" style="edgeStyle=orthogonalEdgeStyle;rounded=0;orthogonalLoop=1;jettySize=auto;html=1;exitX=0.5;exitY=1;exitDx=0;exitDy=0;fillColor=#f8cecc;strokeColor=#b85450;gradientColor=#ea6b66;" parent="jN8S7fCRklli_ahP0uXs-109" edge="1">
          <mxGeometry relative="1" as="geometry">
            <mxPoint x="150" y="40" as="sourcePoint" />
            <mxPoint x="150" y="40" as="targetPoint" />
          </mxGeometry>
        </mxCell>
        <mxCell id="jN8S7fCRklli_ahP0uXs-111" value="160ml Acetonedicarboxylic acid monomethyl ester" style="rounded=0;whiteSpace=wrap;html=1;fillColor=#f8cecc;strokeColor=#b85450;gradientColor=#ea6b66;" parent="jN8S7fCRklli_ahP0uXs-109" vertex="1">
          <mxGeometry y="20" width="400" height="20" as="geometry" />
        </mxCell>
        <mxCell id="jN8S7fCRklli_ahP0uXs-112" value="Inputs" style="swimlane;whiteSpace=wrap;html=1;fillColor=#d5e8d4;strokeColor=#82b366;gradientColor=#97d077;" parent="WIyWlLk6GJQsqaUBKTNV-1" vertex="1">
          <mxGeometry x="1020" y="435" width="400" height="60" as="geometry">
            <mxRectangle x="80" y="230" width="80" height="30" as="alternateBounds" />
          </mxGeometry>
        </mxCell>
        <mxCell id="jN8S7fCRklli_ahP0uXs-113" value="41.0 g (0.32 mol) of acetonedicarboxylic acid anhydride" style="rounded=0;whiteSpace=wrap;html=1;fillColor=#d5e8d4;strokeColor=#82b366;gradientColor=#97d077;" parent="jN8S7fCRklli_ahP0uXs-112" vertex="1">
          <mxGeometry y="20" width="400" height="20" as="geometry" />
        </mxCell>
        <mxCell id="jN8S7fCRklli_ahP0uXs-114" style="edgeStyle=orthogonalEdgeStyle;rounded=0;orthogonalLoop=1;jettySize=auto;html=1;exitX=0.5;exitY=1;exitDx=0;exitDy=0;fillColor=#d5e8d4;strokeColor=#82b366;gradientColor=#97d077;" parent="jN8S7fCRklli_ahP0uXs-112" source="jN8S7fCRklli_ahP0uXs-113" target="jN8S7fCRklli_ahP0uXs-113" edge="1">
          <mxGeometry relative="1" as="geometry" />
        </mxCell>
        <mxCell id="jN8S7fCRklli_ahP0uXs-115" value="160 ml of cold dry methanol" style="rounded=0;whiteSpace=wrap;html=1;fillColor=#d5e8d4;strokeColor=#82b366;gradientColor=#97d077;" parent="jN8S7fCRklli_ahP0uXs-112" vertex="1">
          <mxGeometry y="40" width="400" height="20" as="geometry" />
        </mxCell>
        <mxCell id="jN8S7fCRklli_ahP0uXs-116" value="Process" style="swimlane;whiteSpace=wrap;html=1;fillColor=#dae8fc;strokeColor=#6c8ebf;gradientColor=#7ea6e0;" parent="WIyWlLk6GJQsqaUBKTNV-1" vertex="1">
          <mxGeometry x="1020" y="495" width="400" height="40" as="geometry">
            <mxRectangle x="80" y="190" width="90" height="30" as="alternateBounds" />
          </mxGeometry>
        </mxCell>
        <mxCell id="jN8S7fCRklli_ahP0uXs-117" value="Filtered (Machine)" style="rounded=0;whiteSpace=wrap;html=1;fillColor=#dae8fc;strokeColor=#6c8ebf;gradientColor=#7ea6e0;" parent="jN8S7fCRklli_ahP0uXs-116" vertex="1">
          <mxGeometry y="20" width="400" height="20" as="geometry" />
        </mxCell>
        <mxCell id="jN8S7fCRklli_ahP0uXs-118" value="Recipe Configuration" style="swimlane;whiteSpace=wrap;html=1;fillColor=#fff2cc;strokeColor=#d6b656;gradientColor=#ffd966;" parent="WIyWlLk6GJQsqaUBKTNV-1" vertex="1">
          <mxGeometry x="1020" y="535" width="400" height="40" as="geometry">
            <mxRectangle x="80" y="190" width="90" height="30" as="alternateBounds" />
          </mxGeometry>
        </mxCell>
        <mxCell id="jN8S7fCRklli_ahP0uXs-119" value="10 Minutes, 40EU LV" style="rounded=0;whiteSpace=wrap;html=1;fillColor=#fff2cc;strokeColor=#d6b656;gradientColor=#ffd966;" parent="jN8S7fCRklli_ahP0uXs-118" vertex="1">
          <mxGeometry y="20" width="400" height="20" as="geometry" />
        </mxCell>
        <mxCell id="z9s_jIsvvUNa6NwMSLwl-0" value="(±)-2-Carbomethoxytropinone Step Chain" style="shape=document;whiteSpace=wrap;html=1;boundedLbl=1;fillColor=#f5f5f5;gradientColor=#b3b3b3;strokeColor=#666666;" parent="WIyWlLk6GJQsqaUBKTNV-1" vertex="1">
          <mxGeometry x="1440" y="615" width="400" height="80" as="geometry" />
        </mxCell>
        <mxCell id="z9s_jIsvvUNa6NwMSLwl-1" value="Outputs" style="swimlane;whiteSpace=wrap;html=1;fillColor=#f8cecc;strokeColor=#b85450;gradientColor=#ea6b66;" parent="WIyWlLk6GJQsqaUBKTNV-1" vertex="1">
          <mxGeometry x="1480" y="-445" width="400" height="40" as="geometry">
            <mxRectangle x="80" y="360" width="90" height="30" as="alternateBounds" />
          </mxGeometry>
        </mxCell>
        <mxCell id="z9s_jIsvvUNa6NwMSLwl-2" style="edgeStyle=orthogonalEdgeStyle;rounded=0;orthogonalLoop=1;jettySize=auto;html=1;exitX=0.5;exitY=1;exitDx=0;exitDy=0;fillColor=#f8cecc;strokeColor=#b85450;gradientColor=#ea6b66;" parent="z9s_jIsvvUNa6NwMSLwl-1" edge="1">
          <mxGeometry relative="1" as="geometry">
            <mxPoint x="150" y="40" as="sourcePoint" />
            <mxPoint x="150" y="40" as="targetPoint" />
          </mxGeometry>
        </mxCell>
        <mxCell id="z9s_jIsvvUNa6NwMSLwl-3" value="Six liters of 4.4 pH citrate buffer" style="rounded=0;whiteSpace=wrap;html=1;fillColor=#f8cecc;strokeColor=#b85450;gradientColor=#ea6b66;" parent="z9s_jIsvvUNa6NwMSLwl-1" vertex="1">
          <mxGeometry y="20" width="400" height="20" as="geometry" />
        </mxCell>
        <mxCell id="z9s_jIsvvUNa6NwMSLwl-4" value="Inputs" style="swimlane;whiteSpace=wrap;html=1;fillColor=#d5e8d4;strokeColor=#82b366;gradientColor=#97d077;" parent="WIyWlLk6GJQsqaUBKTNV-1" vertex="1">
          <mxGeometry x="1480" y="-605" width="400" height="80" as="geometry">
            <mxRectangle x="80" y="230" width="80" height="30" as="alternateBounds" />
          </mxGeometry>
        </mxCell>
        <mxCell id="z9s_jIsvvUNa6NwMSLwl-5" value="35.3 g of citric acid" style="rounded=0;whiteSpace=wrap;html=1;fillColor=#d5e8d4;strokeColor=#82b366;gradientColor=#97d077;" parent="z9s_jIsvvUNa6NwMSLwl-4" vertex="1">
          <mxGeometry y="20" width="400" height="20" as="geometry" />
        </mxCell>
        <mxCell id="z9s_jIsvvUNa6NwMSLwl-6" style="edgeStyle=orthogonalEdgeStyle;rounded=0;orthogonalLoop=1;jettySize=auto;html=1;exitX=0.5;exitY=1;exitDx=0;exitDy=0;fillColor=#d5e8d4;strokeColor=#82b366;gradientColor=#97d077;" parent="z9s_jIsvvUNa6NwMSLwl-4" source="z9s_jIsvvUNa6NwMSLwl-5" target="z9s_jIsvvUNa6NwMSLwl-5" edge="1">
          <mxGeometry relative="1" as="geometry" />
        </mxCell>
        <mxCell id="z9s_jIsvvUNa6NwMSLwl-7" value="38.8 g of sodium citrate dihydrate" style="rounded=0;whiteSpace=wrap;html=1;fillColor=#d5e8d4;strokeColor=#82b366;gradientColor=#97d077;" parent="z9s_jIsvvUNa6NwMSLwl-4" vertex="1">
          <mxGeometry y="40" width="400" height="20" as="geometry" />
        </mxCell>
        <mxCell id="z9s_jIsvvUNa6NwMSLwl-13" value="6000ml water" style="rounded=0;whiteSpace=wrap;html=1;fillColor=#d5e8d4;strokeColor=#82b366;gradientColor=#97d077;" parent="z9s_jIsvvUNa6NwMSLwl-4" vertex="1">
          <mxGeometry y="60" width="400" height="20" as="geometry" />
        </mxCell>
        <mxCell id="z9s_jIsvvUNa6NwMSLwl-8" value="Process" style="swimlane;whiteSpace=wrap;html=1;fillColor=#dae8fc;strokeColor=#6c8ebf;gradientColor=#7ea6e0;" parent="WIyWlLk6GJQsqaUBKTNV-1" vertex="1">
          <mxGeometry x="1480" y="-525" width="400" height="40" as="geometry">
            <mxRectangle x="80" y="190" width="90" height="30" as="alternateBounds" />
          </mxGeometry>
        </mxCell>
        <mxCell id="z9s_jIsvvUNa6NwMSLwl-9" value="Diluting" style="rounded=0;whiteSpace=wrap;html=1;fillColor=#dae8fc;strokeColor=#6c8ebf;gradientColor=#7ea6e0;" parent="z9s_jIsvvUNa6NwMSLwl-8" vertex="1">
          <mxGeometry y="20" width="400" height="20" as="geometry" />
        </mxCell>
        <mxCell id="z9s_jIsvvUNa6NwMSLwl-10" value="Recipe Configuration" style="swimlane;whiteSpace=wrap;html=1;fillColor=#fff2cc;strokeColor=#d6b656;gradientColor=#ffd966;" parent="WIyWlLk6GJQsqaUBKTNV-1" vertex="1">
          <mxGeometry x="1480" y="-485" width="400" height="40" as="geometry">
            <mxRectangle x="80" y="190" width="90" height="30" as="alternateBounds" />
          </mxGeometry>
        </mxCell>
        <mxCell id="z9s_jIsvvUNa6NwMSLwl-11" value="10 Minutes, 40EU LV" style="rounded=0;whiteSpace=wrap;html=1;fillColor=#fff2cc;strokeColor=#d6b656;gradientColor=#ffd966;" parent="z9s_jIsvvUNa6NwMSLwl-10" vertex="1">
          <mxGeometry y="20" width="400" height="20" as="geometry" />
        </mxCell>
        <mxCell id="z9s_jIsvvUNa6NwMSLwl-14" value="Outputs" style="swimlane;whiteSpace=wrap;html=1;fillColor=#f8cecc;strokeColor=#b85450;gradientColor=#ea6b66;" parent="WIyWlLk6GJQsqaUBKTNV-1" vertex="1">
          <mxGeometry x="1470" y="-135" width="400" height="40" as="geometry">
            <mxRectangle x="80" y="360" width="90" height="30" as="alternateBounds" />
          </mxGeometry>
        </mxCell>
        <mxCell id="z9s_jIsvvUNa6NwMSLwl-15" style="edgeStyle=orthogonalEdgeStyle;rounded=0;orthogonalLoop=1;jettySize=auto;html=1;exitX=0.5;exitY=1;exitDx=0;exitDy=0;fillColor=#f8cecc;strokeColor=#b85450;gradientColor=#ea6b66;" parent="z9s_jIsvvUNa6NwMSLwl-14" edge="1">
          <mxGeometry relative="1" as="geometry">
            <mxPoint x="150" y="40" as="sourcePoint" />
            <mxPoint x="150" y="40" as="targetPoint" />
          </mxGeometry>
        </mxCell>
        <mxCell id="z9s_jIsvvUNa6NwMSLwl-16" value="6560ml of Impure (±)-2-Carbomethoxytropinone Solution" style="rounded=0;whiteSpace=wrap;html=1;fillColor=#f8cecc;strokeColor=#b85450;gradientColor=#ea6b66;" parent="z9s_jIsvvUNa6NwMSLwl-14" vertex="1">
          <mxGeometry y="20" width="400" height="20" as="geometry" />
        </mxCell>
        <mxCell id="z9s_jIsvvUNa6NwMSLwl-17" value="Inputs" style="swimlane;whiteSpace=wrap;html=1;fillColor=#d5e8d4;strokeColor=#82b366;gradientColor=#97d077;" parent="WIyWlLk6GJQsqaUBKTNV-1" vertex="1">
          <mxGeometry x="1470" y="-375" width="400" height="120" as="geometry">
            <mxRectangle x="80" y="230" width="80" height="30" as="alternateBounds" />
          </mxGeometry>
        </mxCell>
        <mxCell id="z9s_jIsvvUNa6NwMSLwl-18" value="Previous /\" style="rounded=0;whiteSpace=wrap;html=1;fillColor=#d5e8d4;strokeColor=#82b366;gradientColor=#97d077;" parent="z9s_jIsvvUNa6NwMSLwl-17" vertex="1">
          <mxGeometry y="20" width="400" height="20" as="geometry" />
        </mxCell>
        <mxCell id="z9s_jIsvvUNa6NwMSLwl-19" style="edgeStyle=orthogonalEdgeStyle;rounded=0;orthogonalLoop=1;jettySize=auto;html=1;exitX=0.5;exitY=1;exitDx=0;exitDy=0;fillColor=#d5e8d4;strokeColor=#82b366;gradientColor=#97d077;" parent="z9s_jIsvvUNa6NwMSLwl-17" source="z9s_jIsvvUNa6NwMSLwl-18" target="z9s_jIsvvUNa6NwMSLwl-18" edge="1">
          <mxGeometry relative="1" as="geometry" />
        </mxCell>
        <mxCell id="z9s_jIsvvUNa6NwMSLwl-20" value="32.0 g (0.48 mol) of methylamine hydrochloride (Fisher)" style="rounded=0;whiteSpace=wrap;html=1;fillColor=#d5e8d4;strokeColor=#82b366;gradientColor=#97d077;" parent="z9s_jIsvvUNa6NwMSLwl-17" vertex="1">
          <mxGeometry y="40" width="400" height="20" as="geometry" />
        </mxCell>
        <mxCell id="z9s_jIsvvUNa6NwMSLwl-21" value="2.8g (0.32 mol) of sodium hydroxide.&amp;nbsp;" style="rounded=0;whiteSpace=wrap;html=1;fillColor=#d5e8d4;strokeColor=#82b366;gradientColor=#97d077;" parent="z9s_jIsvvUNa6NwMSLwl-17" vertex="1">
          <mxGeometry y="60" width="400" height="20" as="geometry" />
        </mxCell>
        <mxCell id="z9s_jIsvvUNa6NwMSLwl-27" value="[S1] 400ml Succindialdehyde solution" style="rounded=0;whiteSpace=wrap;html=1;fillColor=#d5e8d4;strokeColor=#82b366;gradientColor=#97d077;" parent="z9s_jIsvvUNa6NwMSLwl-17" vertex="1">
          <mxGeometry y="80" width="400" height="20" as="geometry" />
        </mxCell>
        <mxCell id="z9s_jIsvvUNa6NwMSLwl-28" value="[S2] 160ml Acetonedicarboxylic acid mono-methyl ester solution" style="rounded=0;whiteSpace=wrap;html=1;fillColor=#d5e8d4;strokeColor=#82b366;gradientColor=#97d077;" parent="z9s_jIsvvUNa6NwMSLwl-17" vertex="1">
          <mxGeometry y="100" width="400" height="20" as="geometry" />
        </mxCell>
        <mxCell id="z9s_jIsvvUNa6NwMSLwl-22" value="Process" style="swimlane;whiteSpace=wrap;html=1;fillColor=#dae8fc;strokeColor=#6c8ebf;gradientColor=#7ea6e0;" parent="WIyWlLk6GJQsqaUBKTNV-1" vertex="1">
          <mxGeometry x="1470" y="-255" width="400" height="40" as="geometry">
            <mxRectangle x="80" y="190" width="90" height="30" as="alternateBounds" />
          </mxGeometry>
        </mxCell>
        <mxCell id="z9s_jIsvvUNa6NwMSLwl-23" value="[S1] [S2] [F] stirring at room temperature." style="rounded=0;whiteSpace=wrap;html=1;fillColor=#dae8fc;strokeColor=#6c8ebf;gradientColor=#7ea6e0;" parent="z9s_jIsvvUNa6NwMSLwl-22" vertex="1">
          <mxGeometry y="20" width="400" height="20" as="geometry" />
        </mxCell>
        <mxCell id="z9s_jIsvvUNa6NwMSLwl-24" value="Recipe Configuration" style="swimlane;whiteSpace=wrap;html=1;fillColor=#fff2cc;strokeColor=#d6b656;gradientColor=#ffd966;" parent="WIyWlLk6GJQsqaUBKTNV-1" vertex="1">
          <mxGeometry x="1470" y="-215" width="400" height="80" as="geometry">
            <mxRectangle x="1440" y="440" width="90" height="30" as="alternateBounds" />
          </mxGeometry>
        </mxCell>
        <mxCell id="z9s_jIsvvUNa6NwMSLwl-25" value="[S1] 3 Minutes, 120EU LV" style="rounded=0;whiteSpace=wrap;html=1;fillColor=#fff2cc;strokeColor=#d6b656;gradientColor=#ffd966;" parent="z9s_jIsvvUNa6NwMSLwl-24" vertex="1">
          <mxGeometry y="20" width="400" height="20" as="geometry" />
        </mxCell>
        <mxCell id="z9s_jIsvvUNa6NwMSLwl-43" value="[S2] 5 Minutes, 120EU LV" style="rounded=0;whiteSpace=wrap;html=1;fillColor=#fff2cc;strokeColor=#d6b656;gradientColor=#ffd966;" parent="z9s_jIsvvUNa6NwMSLwl-24" vertex="1">
          <mxGeometry y="40" width="400" height="20" as="geometry" />
        </mxCell>
        <mxCell id="z9s_jIsvvUNa6NwMSLwl-44" value="[F] 30 Minutes, 120EU LV" style="rounded=0;whiteSpace=wrap;html=1;fillColor=#fff2cc;strokeColor=#d6b656;gradientColor=#ffd966;" parent="z9s_jIsvvUNa6NwMSLwl-24" vertex="1">
          <mxGeometry y="60" width="400" height="20" as="geometry" />
        </mxCell>
        <mxCell id="z9s_jIsvvUNa6NwMSLwl-26" value="Chain Link" style="shape=parallelogram;perimeter=parallelogramPerimeter;whiteSpace=wrap;html=1;fixedSize=1;fillColor=#f5f5f5;gradientColor=#b3b3b3;strokeColor=#666666;size=10;" parent="WIyWlLk6GJQsqaUBKTNV-1" vertex="1">
          <mxGeometry x="1470" y="-405" width="410" height="30" as="geometry" />
        </mxCell>
        <mxCell id="z9s_jIsvvUNa6NwMSLwl-46" value="Chain Link" style="shape=parallelogram;perimeter=parallelogramPerimeter;whiteSpace=wrap;html=1;fixedSize=1;fillColor=#f5f5f5;gradientColor=#b3b3b3;strokeColor=#666666;size=10;" parent="WIyWlLk6GJQsqaUBKTNV-1" vertex="1">
          <mxGeometry x="1460" y="-95" width="410" height="30" as="geometry" />
        </mxCell>
        <mxCell id="z9s_jIsvvUNa6NwMSLwl-47" value="Outputs" style="swimlane;whiteSpace=wrap;html=1;fillColor=#f8cecc;strokeColor=#b85450;gradientColor=#ea6b66;" parent="WIyWlLk6GJQsqaUBKTNV-1" vertex="1">
          <mxGeometry x="1460" y="95" width="400" height="40" as="geometry">
            <mxRectangle x="80" y="360" width="90" height="30" as="alternateBounds" />
          </mxGeometry>
        </mxCell>
        <mxCell id="z9s_jIsvvUNa6NwMSLwl-48" style="edgeStyle=orthogonalEdgeStyle;rounded=0;orthogonalLoop=1;jettySize=auto;html=1;exitX=0.5;exitY=1;exitDx=0;exitDy=0;fillColor=#f8cecc;strokeColor=#b85450;gradientColor=#ea6b66;" parent="z9s_jIsvvUNa6NwMSLwl-47" edge="1">
          <mxGeometry relative="1" as="geometry">
            <mxPoint x="150" y="40" as="sourcePoint" />
            <mxPoint x="150" y="40" as="targetPoint" />
          </mxGeometry>
        </mxCell>
        <mxCell id="z9s_jIsvvUNa6NwMSLwl-49" value="Impure (±)-2-Carbomethoxytropinone Solution Extract" style="rounded=0;whiteSpace=wrap;html=1;fillColor=#f8cecc;strokeColor=#b85450;gradientColor=#ea6b66;" parent="z9s_jIsvvUNa6NwMSLwl-47" vertex="1">
          <mxGeometry y="20" width="400" height="20" as="geometry" />
        </mxCell>
        <mxCell id="z9s_jIsvvUNa6NwMSLwl-50" value="Inputs" style="swimlane;whiteSpace=wrap;html=1;fillColor=#d5e8d4;strokeColor=#82b366;gradientColor=#97d077;" parent="WIyWlLk6GJQsqaUBKTNV-1" vertex="1">
          <mxGeometry x="1460" y="-65" width="400" height="80" as="geometry">
            <mxRectangle x="80" y="230" width="80" height="30" as="alternateBounds" />
          </mxGeometry>
        </mxCell>
        <mxCell id="z9s_jIsvvUNa6NwMSLwl-51" value="/\ Previous" style="rounded=0;whiteSpace=wrap;html=1;fillColor=#d5e8d4;strokeColor=#82b366;gradientColor=#97d077;" parent="z9s_jIsvvUNa6NwMSLwl-50" vertex="1">
          <mxGeometry y="20" width="400" height="20" as="geometry" />
        </mxCell>
        <mxCell id="z9s_jIsvvUNa6NwMSLwl-52" style="edgeStyle=orthogonalEdgeStyle;rounded=0;orthogonalLoop=1;jettySize=auto;html=1;exitX=0.5;exitY=1;exitDx=0;exitDy=0;fillColor=#d5e8d4;strokeColor=#82b366;gradientColor=#97d077;" parent="z9s_jIsvvUNa6NwMSLwl-50" source="z9s_jIsvvUNa6NwMSLwl-51" target="z9s_jIsvvUNa6NwMSLwl-51" edge="1">
          <mxGeometry relative="1" as="geometry" />
        </mxCell>
        <mxCell id="z9s_jIsvvUNa6NwMSLwl-53" value="???ml concentrated ammonium hydroxide" style="rounded=0;whiteSpace=wrap;html=1;fillColor=#d5e8d4;strokeColor=#82b366;gradientColor=#97d077;" parent="z9s_jIsvvUNa6NwMSLwl-50" vertex="1">
          <mxGeometry y="40" width="400" height="20" as="geometry" />
        </mxCell>
        <mxCell id="z9s_jIsvvUNa6NwMSLwl-58" value="200 ml of chloroform" style="rounded=0;whiteSpace=wrap;html=1;fillColor=#d5e8d4;strokeColor=#82b366;gradientColor=#97d077;" parent="z9s_jIsvvUNa6NwMSLwl-50" vertex="1">
          <mxGeometry y="60" width="400" height="20" as="geometry" />
        </mxCell>
        <mxCell id="z9s_jIsvvUNa6NwMSLwl-54" value="Process" style="swimlane;whiteSpace=wrap;html=1;fillColor=#dae8fc;strokeColor=#6c8ebf;gradientColor=#7ea6e0;" parent="WIyWlLk6GJQsqaUBKTNV-1" vertex="1">
          <mxGeometry x="1460" y="15" width="400" height="40" as="geometry">
            <mxRectangle x="80" y="190" width="90" height="30" as="alternateBounds" />
          </mxGeometry>
        </mxCell>
        <mxCell id="z9s_jIsvvUNa6NwMSLwl-55" value="Advanced Reaction Extraction" style="rounded=0;whiteSpace=wrap;html=1;fillColor=#dae8fc;strokeColor=#6c8ebf;gradientColor=#7ea6e0;" parent="z9s_jIsvvUNa6NwMSLwl-54" vertex="1">
          <mxGeometry y="20" width="400" height="20" as="geometry" />
        </mxCell>
        <mxCell id="z9s_jIsvvUNa6NwMSLwl-56" value="Recipe Configuration" style="swimlane;whiteSpace=wrap;html=1;fillColor=#fff2cc;strokeColor=#d6b656;gradientColor=#ffd966;" parent="WIyWlLk6GJQsqaUBKTNV-1" vertex="1">
          <mxGeometry x="1460" y="55" width="400" height="40" as="geometry">
            <mxRectangle x="80" y="190" width="90" height="30" as="alternateBounds" />
          </mxGeometry>
        </mxCell>
        <mxCell id="z9s_jIsvvUNa6NwMSLwl-57" value="1 Hour, 40EU LV" style="rounded=0;whiteSpace=wrap;html=1;fillColor=#fff2cc;strokeColor=#d6b656;gradientColor=#ffd966;" parent="z9s_jIsvvUNa6NwMSLwl-56" vertex="1">
          <mxGeometry y="20" width="400" height="20" as="geometry" />
        </mxCell>
        <mxCell id="z9s_jIsvvUNa6NwMSLwl-59" value="Outputs" style="swimlane;whiteSpace=wrap;html=1;fillColor=#f8cecc;strokeColor=#b85450;gradientColor=#ea6b66;" parent="WIyWlLk6GJQsqaUBKTNV-1" vertex="1">
          <mxGeometry x="1450" y="285" width="400" height="40" as="geometry">
            <mxRectangle x="80" y="360" width="90" height="30" as="alternateBounds" />
          </mxGeometry>
        </mxCell>
        <mxCell id="z9s_jIsvvUNa6NwMSLwl-60" style="edgeStyle=orthogonalEdgeStyle;rounded=0;orthogonalLoop=1;jettySize=auto;html=1;exitX=0.5;exitY=1;exitDx=0;exitDy=0;fillColor=#f8cecc;strokeColor=#b85450;gradientColor=#ea6b66;" parent="z9s_jIsvvUNa6NwMSLwl-59" edge="1">
          <mxGeometry relative="1" as="geometry">
            <mxPoint x="150" y="40" as="sourcePoint" />
            <mxPoint x="150" y="40" as="targetPoint" />
          </mxGeometry>
        </mxCell>
        <mxCell id="z9s_jIsvvUNa6NwMSLwl-61" value="Yellow oil (Impure (±)-2-Carbomethoxytropinone)" style="rounded=0;whiteSpace=wrap;html=1;fillColor=#f8cecc;strokeColor=#b85450;gradientColor=#ea6b66;" parent="z9s_jIsvvUNa6NwMSLwl-59" vertex="1">
          <mxGeometry y="20" width="400" height="20" as="geometry" />
        </mxCell>
        <mxCell id="z9s_jIsvvUNa6NwMSLwl-66" value="Process" style="swimlane;whiteSpace=wrap;html=1;fillColor=#dae8fc;strokeColor=#6c8ebf;gradientColor=#7ea6e0;" parent="WIyWlLk6GJQsqaUBKTNV-1" vertex="1">
          <mxGeometry x="1450" y="165" width="400" height="60" as="geometry">
            <mxRectangle x="80" y="190" width="90" height="30" as="alternateBounds" />
          </mxGeometry>
        </mxCell>
        <mxCell id="z9s_jIsvvUNa6NwMSLwl-67" value="[S1] Dried" style="rounded=0;whiteSpace=wrap;html=1;fillColor=#dae8fc;strokeColor=#6c8ebf;gradientColor=#7ea6e0;" parent="z9s_jIsvvUNa6NwMSLwl-66" vertex="1">
          <mxGeometry y="20" width="400" height="20" as="geometry" />
        </mxCell>
        <mxCell id="z9s_jIsvvUNa6NwMSLwl-71" value="[S2] Vacuum Evaporated" style="rounded=0;whiteSpace=wrap;html=1;fillColor=#dae8fc;strokeColor=#6c8ebf;gradientColor=#7ea6e0;" parent="z9s_jIsvvUNa6NwMSLwl-66" vertex="1">
          <mxGeometry y="40" width="400" height="20" as="geometry" />
        </mxCell>
        <mxCell id="z9s_jIsvvUNa6NwMSLwl-68" value="Recipe Configuration" style="swimlane;whiteSpace=wrap;html=1;fillColor=#fff2cc;strokeColor=#d6b656;gradientColor=#ffd966;" parent="WIyWlLk6GJQsqaUBKTNV-1" vertex="1">
          <mxGeometry x="1450" y="225" width="400" height="40" as="geometry">
            <mxRectangle x="80" y="190" width="90" height="30" as="alternateBounds" />
          </mxGeometry>
        </mxCell>
        <mxCell id="z9s_jIsvvUNa6NwMSLwl-69" value="[S1] 6 Minutes, 40EU LV" style="rounded=0;whiteSpace=wrap;html=1;fillColor=#fff2cc;strokeColor=#d6b656;gradientColor=#ffd966;" parent="z9s_jIsvvUNa6NwMSLwl-68" vertex="1">
          <mxGeometry y="20" width="400" height="20" as="geometry" />
        </mxCell>
        <mxCell id="z9s_jIsvvUNa6NwMSLwl-70" value="Chain Link" style="shape=parallelogram;perimeter=parallelogramPerimeter;whiteSpace=wrap;html=1;fixedSize=1;fillColor=#f5f5f5;gradientColor=#b3b3b3;strokeColor=#666666;size=10;" parent="WIyWlLk6GJQsqaUBKTNV-1" vertex="1">
          <mxGeometry x="1450" y="135" width="410" height="30" as="geometry" />
        </mxCell>
        <mxCell id="z9s_jIsvvUNa6NwMSLwl-73" value="[S2] 12 Minutes, 40EU LV" style="rounded=0;whiteSpace=wrap;html=1;fillColor=#fff2cc;strokeColor=#d6b656;gradientColor=#ffd966;" parent="WIyWlLk6GJQsqaUBKTNV-1" vertex="1">
          <mxGeometry x="1450" y="265" width="400" height="20" as="geometry" />
        </mxCell>
        <mxCell id="z9s_jIsvvUNa6NwMSLwl-74" value="Outputs" style="swimlane;whiteSpace=wrap;html=1;fillColor=#f8cecc;strokeColor=#b85450;gradientColor=#ea6b66;" parent="WIyWlLk6GJQsqaUBKTNV-1" vertex="1">
          <mxGeometry x="1440" y="575" width="400" height="40" as="geometry">
            <mxRectangle x="80" y="360" width="90" height="30" as="alternateBounds" />
          </mxGeometry>
        </mxCell>
        <mxCell id="z9s_jIsvvUNa6NwMSLwl-75" style="edgeStyle=orthogonalEdgeStyle;rounded=0;orthogonalLoop=1;jettySize=auto;html=1;exitX=0.5;exitY=1;exitDx=0;exitDy=0;fillColor=#f8cecc;strokeColor=#b85450;gradientColor=#ea6b66;" parent="z9s_jIsvvUNa6NwMSLwl-74" edge="1">
          <mxGeometry relative="1" as="geometry">
            <mxPoint x="150" y="40" as="sourcePoint" />
            <mxPoint x="150" y="40" as="targetPoint" />
          </mxGeometry>
        </mxCell>
        <mxCell id="z9s_jIsvvUNa6NwMSLwl-76" value="58.9g (±)-2-Carbomethoxytropinone" style="rounded=0;whiteSpace=wrap;html=1;fillColor=#f8cecc;strokeColor=#b85450;gradientColor=#ea6b66;" parent="z9s_jIsvvUNa6NwMSLwl-74" vertex="1">
          <mxGeometry y="20" width="400" height="20" as="geometry" />
        </mxCell>
        <mxCell id="z9s_jIsvvUNa6NwMSLwl-77" value="Inputs" style="swimlane;whiteSpace=wrap;html=1;fillColor=#d5e8d4;strokeColor=#82b366;gradientColor=#97d077;" parent="WIyWlLk6GJQsqaUBKTNV-1" vertex="1">
          <mxGeometry x="1440" y="355" width="400" height="60" as="geometry">
            <mxRectangle x="80" y="230" width="80" height="30" as="alternateBounds" />
          </mxGeometry>
        </mxCell>
        <mxCell id="z9s_jIsvvUNa6NwMSLwl-78" value="Previous /\" style="rounded=0;whiteSpace=wrap;html=1;fillColor=#d5e8d4;strokeColor=#82b366;gradientColor=#97d077;" parent="z9s_jIsvvUNa6NwMSLwl-77" vertex="1">
          <mxGeometry y="20" width="400" height="20" as="geometry" />
        </mxCell>
        <mxCell id="z9s_jIsvvUNa6NwMSLwl-79" style="edgeStyle=orthogonalEdgeStyle;rounded=0;orthogonalLoop=1;jettySize=auto;html=1;exitX=0.5;exitY=1;exitDx=0;exitDy=0;fillColor=#d5e8d4;strokeColor=#82b366;gradientColor=#97d077;" parent="z9s_jIsvvUNa6NwMSLwl-77" source="z9s_jIsvvUNa6NwMSLwl-78" target="z9s_jIsvvUNa6NwMSLwl-78" edge="1">
          <mxGeometry relative="1" as="geometry" />
        </mxCell>
        <mxCell id="z9s_jIsvvUNa6NwMSLwl-80" value="[S1] 200 ml of dry diethyl ether" style="rounded=0;whiteSpace=wrap;html=1;fillColor=#d5e8d4;strokeColor=#82b366;gradientColor=#97d077;" parent="z9s_jIsvvUNa6NwMSLwl-77" vertex="1">
          <mxGeometry y="40" width="400" height="20" as="geometry" />
        </mxCell>
        <mxCell id="z9s_jIsvvUNa6NwMSLwl-81" value="Process" style="swimlane;whiteSpace=wrap;html=1;fillColor=#dae8fc;strokeColor=#6c8ebf;gradientColor=#7ea6e0;" parent="WIyWlLk6GJQsqaUBKTNV-1" vertex="1">
          <mxGeometry x="1440" y="415" width="400" height="80" as="geometry">
            <mxRectangle x="80" y="190" width="90" height="30" as="alternateBounds" />
          </mxGeometry>
        </mxCell>
        <mxCell id="z9s_jIsvvUNa6NwMSLwl-82" value="[S1] Filtered" style="rounded=0;whiteSpace=wrap;html=1;fillColor=#dae8fc;strokeColor=#6c8ebf;gradientColor=#7ea6e0;" parent="z9s_jIsvvUNa6NwMSLwl-81" vertex="1">
          <mxGeometry y="20" width="400" height="20" as="geometry" />
        </mxCell>
        <mxCell id="z9s_jIsvvUNa6NwMSLwl-83" value="[S2] Vacuum Evaporated" style="rounded=0;whiteSpace=wrap;html=1;fillColor=#dae8fc;strokeColor=#6c8ebf;gradientColor=#7ea6e0;" parent="z9s_jIsvvUNa6NwMSLwl-81" vertex="1">
          <mxGeometry y="40" width="400" height="20" as="geometry" />
        </mxCell>
        <mxCell id="hkI1WA47mrNtZ-UFLvnM-0" value="[F]&amp;nbsp;sublimation&amp;nbsp;" style="rounded=0;whiteSpace=wrap;html=1;fillColor=#dae8fc;strokeColor=#6c8ebf;gradientColor=#7ea6e0;" parent="z9s_jIsvvUNa6NwMSLwl-81" vertex="1">
          <mxGeometry y="60" width="400" height="20" as="geometry" />
        </mxCell>
        <mxCell id="z9s_jIsvvUNa6NwMSLwl-84" value="Recipe Configuration" style="swimlane;whiteSpace=wrap;html=1;fillColor=#fff2cc;strokeColor=#d6b656;gradientColor=#ffd966;" parent="WIyWlLk6GJQsqaUBKTNV-1" vertex="1">
          <mxGeometry x="1440" y="495" width="400" height="80" as="geometry">
            <mxRectangle x="80" y="190" width="90" height="30" as="alternateBounds" />
          </mxGeometry>
        </mxCell>
        <mxCell id="z9s_jIsvvUNa6NwMSLwl-85" value="[S1] 4 Minutes, 40EU LV" style="rounded=0;whiteSpace=wrap;html=1;fillColor=#fff2cc;strokeColor=#d6b656;gradientColor=#ffd966;" parent="z9s_jIsvvUNa6NwMSLwl-84" vertex="1">
          <mxGeometry y="20" width="400" height="20" as="geometry" />
        </mxCell>
        <mxCell id="z9s_jIsvvUNa6NwMSLwl-87" value="[S2] 15 Minutes, 40EU LV" style="rounded=0;whiteSpace=wrap;html=1;fillColor=#fff2cc;strokeColor=#d6b656;gradientColor=#ffd966;" parent="z9s_jIsvvUNa6NwMSLwl-84" vertex="1">
          <mxGeometry y="40" width="400" height="20" as="geometry" />
        </mxCell>
        <mxCell id="hkI1WA47mrNtZ-UFLvnM-1" value="[F] 20 Minutes, 40EU LV" style="rounded=0;whiteSpace=wrap;html=1;fillColor=#fff2cc;strokeColor=#d6b656;gradientColor=#ffd966;" parent="z9s_jIsvvUNa6NwMSLwl-84" vertex="1">
          <mxGeometry y="60" width="400" height="20" as="geometry" />
        </mxCell>
        <mxCell id="z9s_jIsvvUNa6NwMSLwl-86" value="Chain Link" style="shape=parallelogram;perimeter=parallelogramPerimeter;whiteSpace=wrap;html=1;fixedSize=1;fillColor=#f5f5f5;gradientColor=#b3b3b3;strokeColor=#666666;size=10;" parent="WIyWlLk6GJQsqaUBKTNV-1" vertex="1">
          <mxGeometry x="1440" y="325" width="410" height="30" as="geometry" />
        </mxCell>
        <mxCell id="p_TBhPMnW_n9OLw-p7-H-0" value="Outputs" style="swimlane;whiteSpace=wrap;html=1;fillColor=#f8cecc;strokeColor=#b85450;gradientColor=#ea6b66;" vertex="1" parent="WIyWlLk6GJQsqaUBKTNV-1">
          <mxGeometry x="1860" y="574" width="400" height="40" as="geometry">
            <mxRectangle x="80" y="360" width="90" height="30" as="alternateBounds" />
          </mxGeometry>
        </mxCell>
        <mxCell id="p_TBhPMnW_n9OLw-p7-H-1" style="edgeStyle=orthogonalEdgeStyle;rounded=0;orthogonalLoop=1;jettySize=auto;html=1;exitX=0.5;exitY=1;exitDx=0;exitDy=0;fillColor=#f8cecc;strokeColor=#b85450;gradientColor=#ea6b66;" edge="1" parent="p_TBhPMnW_n9OLw-p7-H-0">
          <mxGeometry relative="1" as="geometry">
            <mxPoint x="150" y="40" as="sourcePoint" />
            <mxPoint x="150" y="40" as="targetPoint" />
          </mxGeometry>
        </mxCell>
        <mxCell id="p_TBhPMnW_n9OLw-p7-H-2" value="160ml Acetonedicarboxylic acid monomethyl ester" style="rounded=0;whiteSpace=wrap;html=1;fillColor=#f8cecc;strokeColor=#b85450;gradientColor=#ea6b66;" vertex="1" parent="p_TBhPMnW_n9OLw-p7-H-0">
          <mxGeometry y="20" width="400" height="20" as="geometry" />
        </mxCell>
        <mxCell id="p_TBhPMnW_n9OLw-p7-H-3" value="Inputs" style="swimlane;whiteSpace=wrap;html=1;fillColor=#d5e8d4;strokeColor=#82b366;gradientColor=#97d077;" vertex="1" parent="WIyWlLk6GJQsqaUBKTNV-1">
          <mxGeometry x="1860" y="394" width="400" height="80" as="geometry">
            <mxRectangle x="80" y="230" width="80" height="30" as="alternateBounds" />
          </mxGeometry>
        </mxCell>
        <mxCell id="p_TBhPMnW_n9OLw-p7-H-4" value="6.60 g (0.124 mol) of sublimed racemic 2-CMT" style="rounded=0;whiteSpace=wrap;html=1;fillColor=#d5e8d4;strokeColor=#82b366;gradientColor=#97d077;" vertex="1" parent="p_TBhPMnW_n9OLw-p7-H-3">
          <mxGeometry y="20" width="400" height="20" as="geometry" />
        </mxCell>
        <mxCell id="p_TBhPMnW_n9OLw-p7-H-5" style="edgeStyle=orthogonalEdgeStyle;rounded=0;orthogonalLoop=1;jettySize=auto;html=1;exitX=0.5;exitY=1;exitDx=0;exitDy=0;fillColor=#d5e8d4;strokeColor=#82b366;gradientColor=#97d077;" edge="1" parent="p_TBhPMnW_n9OLw-p7-H-3" source="p_TBhPMnW_n9OLw-p7-H-4" target="p_TBhPMnW_n9OLw-p7-H-4">
          <mxGeometry relative="1" as="geometry" />
        </mxCell>
        <mxCell id="p_TBhPMnW_n9OLw-p7-H-6" value="239 ml of absolute ethanol" style="rounded=0;whiteSpace=wrap;html=1;fillColor=#d5e8d4;strokeColor=#82b366;gradientColor=#97d077;" vertex="1" parent="p_TBhPMnW_n9OLw-p7-H-3">
          <mxGeometry y="40" width="400" height="20" as="geometry" />
        </mxCell>
        <mxCell id="p_TBhPMnW_n9OLw-p7-H-11" value="18.57 g (0.124 mol) of (-)-tartaric acid" style="rounded=0;whiteSpace=wrap;html=1;fillColor=#d5e8d4;strokeColor=#82b366;gradientColor=#97d077;" vertex="1" parent="p_TBhPMnW_n9OLw-p7-H-3">
          <mxGeometry y="60" width="400" height="20" as="geometry" />
        </mxCell>
        <mxCell id="p_TBhPMnW_n9OLw-p7-H-9" value="Recipe Configuration" style="swimlane;whiteSpace=wrap;html=1;fillColor=#fff2cc;strokeColor=#d6b656;gradientColor=#ffd966;" vertex="1" parent="WIyWlLk6GJQsqaUBKTNV-1">
          <mxGeometry x="1860" y="534" width="400" height="40" as="geometry">
            <mxRectangle x="80" y="190" width="90" height="30" as="alternateBounds" />
          </mxGeometry>
        </mxCell>
        <mxCell id="p_TBhPMnW_n9OLw-p7-H-10" value="10 Minutes, 40EU LV" style="rounded=0;whiteSpace=wrap;html=1;fillColor=#fff2cc;strokeColor=#d6b656;gradientColor=#ffd966;" vertex="1" parent="p_TBhPMnW_n9OLw-p7-H-9">
          <mxGeometry y="20" width="400" height="20" as="geometry" />
        </mxCell>
        <mxCell id="p_TBhPMnW_n9OLw-p7-H-7" value="Process" style="swimlane;whiteSpace=wrap;html=1;fillColor=#dae8fc;strokeColor=#6c8ebf;gradientColor=#7ea6e0;" vertex="1" parent="WIyWlLk6GJQsqaUBKTNV-1">
          <mxGeometry x="1860" y="474" width="400" height="60" as="geometry">
            <mxRectangle x="80" y="190" width="90" height="30" as="alternateBounds" />
          </mxGeometry>
        </mxCell>
        <mxCell id="p_TBhPMnW_n9OLw-p7-H-8" value="[S1] Chemical Mixer" style="rounded=0;whiteSpace=wrap;html=1;fillColor=#dae8fc;strokeColor=#6c8ebf;gradientColor=#7ea6e0;" vertex="1" parent="p_TBhPMnW_n9OLw-p7-H-7">
          <mxGeometry y="20" width="400" height="20" as="geometry" />
        </mxCell>
        <mxCell id="p_TBhPMnW_n9OLw-p7-H-13" value="[S2] Decantation" style="rounded=0;whiteSpace=wrap;html=1;fillColor=#dae8fc;strokeColor=#6c8ebf;gradientColor=#7ea6e0;" vertex="1" parent="p_TBhPMnW_n9OLw-p7-H-7">
          <mxGeometry y="40" width="400" height="20" as="geometry" />
        </mxCell>
        <mxCell id="p_TBhPMnW_n9OLw-p7-H-14" value="Resolution of (±)-2-carbomethoxytropinone Step Chain" style="shape=document;whiteSpace=wrap;html=1;boundedLbl=1;fillColor=#f5f5f5;gradientColor=#b3b3b3;strokeColor=#666666;" vertex="1" parent="WIyWlLk6GJQsqaUBKTNV-1">
          <mxGeometry x="1860" y="615" width="400" height="80" as="geometry" />
        </mxCell>
      </root>
    </mxGraphModel>
  </diagram>
</mxfile>
